<mxfile host="65bd71144e">
    <diagram id="pIaEtrtLPv3HG8r1JEND" name="Page-1">
        <mxGraphModel dx="834" dy="561" grid="1" gridSize="10" guides="1" tooltips="1" connect="1" arrows="1" fold="1" page="1" pageScale="1" pageWidth="850" pageHeight="1100" math="0" shadow="0">
            <root>
                <mxCell id="0"/>
                <mxCell id="1" parent="0"/>
                <mxCell id="2" value="" style="rounded=0;whiteSpace=wrap;html=1;" parent="1" vertex="1">
                    <mxGeometry x="80" y="80" width="400" height="300" as="geometry"/>
                </mxCell>
                <mxCell id="3" value="Header" style="rounded=0;whiteSpace=wrap;html=1;" parent="1" vertex="1">
                    <mxGeometry x="80" y="80" width="400" height="40" as="geometry"/>
                </mxCell>
                <mxCell id="6" value="Dogezes" style="text;strokeColor=none;fillColor=none;html=1;fontSize=24;fontStyle=1;verticalAlign=middle;align=center;" vertex="1" parent="1">
                    <mxGeometry x="90" y="130" width="100" height="40" as="geometry"/>
                </mxCell>
                <mxCell id="7" value="" style="sketch=0;outlineConnect=0;fontColor=#232F3E;gradientColor=none;fillColor=#D45B07;strokeColor=none;dashed=0;verticalLabelPosition=bottom;verticalAlign=top;align=center;html=1;fontSize=12;fontStyle=0;aspect=fixed;pointerEvents=1;shape=mxgraph.aws4.container_registry_image;" vertex="1" parent="1">
                    <mxGeometry x="230" y="140" width="228" height="228" as="geometry"/>
                </mxCell>
            </root>
        </mxGraphModel>
    </diagram>
</mxfile>